<svg id="close" xmlns="http://www.w3.org/2000/svg" viewBox="0 0 157.95 157.93"><defs><style>.cls-1{fill:#da5859;}.cls-2{fill:#f9f9f9;}</style></defs><path class="cls-1" d="M113.44,78.94l36.21-36.21a24.4,24.4,0,0,0,0-34.49h0a24.4,24.4,0,0,0-34.49,0L79,44.45,42.74,8.24a24.4,24.4,0,0,0-34.49,0h0a24.4,24.4,0,0,0,0,34.49L44.46,78.94,8.25,115.15a24.4,24.4,0,0,0,0,34.49h0a24.4,24.4,0,0,0,34.49,0L79,113.43l36.21,36.21a24.4,24.4,0,0,0,34.49,0h0a24.4,24.4,0,0,0,0-34.49Z" transform="translate(0.02 0.06)"/><path class="cls-2" d="M114.23,79.74l20.22-20.22,12.41-12.41c3.14-3.17,6.35-6.17,8.36-10.17A25.51,25.51,0,0,0,114.76,7.1c-.7.67-1.38,1.37-2.07,2.06L101.82,20,78.59,43.22l-.44.44h1.6L59.53,23.44,47.12,11C44,7.94,41,4.68,37,2.67A25.52,25.52,0,0,0,7.07,43.13c.67.7,1.37,1.38,2.06,2.07L20,56.07,43.23,79.3l.44.44v-1.6l-20.4,20.4L10.82,111c-3.24,3.24-6.48,6.36-8.45,10.62a25.86,25.86,0,0,0-1.91,15.7,25.27,25.27,0,0,0,2.71,7.44,26.67,26.67,0,0,0,2.34,3.5c.59.74,1.68,2.51,2.74,2.51l-.79-.33a25.74,25.74,0,0,0,26.62,6,26.16,26.16,0,0,0,9.54-6.08c.83-.81,1.65-1.64,2.47-2.46l25.74-25.75,7.92-7.91h-1.6l20,20,12.58,12.58c3.06,3.06,6,6.18,9.89,8.2a25.79,25.79,0,0,0,29.77-4.62l-.79.33c.92,0,1.76-1.33,2.28-2a26.94,26.94,0,0,0,2.27-3.14,25.59,25.59,0,0,0,2.62-20.7,25.91,25.91,0,0,0-6.42-10.65L148,112,122.24,86.21l-8.06-8.06a1.13,1.13,0,0,0-1.59,1.6L131.84,99l12.57,12.56c2.56,2.56,5.43,5.07,7.42,8.11a23.49,23.49,0,0,1-3,29.18l.8-.33c-.91,0-1.77,1.27-2.42,1.82a22,22,0,0,1-3.14,2.19A23.36,23.36,0,0,1,123.75,154c-4.43-1.75-7.59-5-10.86-8.22L87.34,120.26l-7.61-7.62a1.15,1.15,0,0,0-1.6,0L58.62,132.16,46.1,144.69c-2.75,2.74-5.4,5.75-8.77,7.74a23.25,23.25,0,0,1-22.74.52,24.63,24.63,0,0,1-3.36-2.16c-.57-.45-1.12-.93-1.65-1.43s-.74-.85-1.33-.85l.8.33a23.48,23.48,0,0,1-4.66-26.25c1.88-4,4.91-6.9,8-10L37.82,87.16l7.47-7.46a1.15,1.15,0,0,0,0-1.6L26,58.8,13.44,46.33c-2.6-2.6-5.52-5.15-7.51-8.26A23.26,23.26,0,0,1,42,9.07l2.21,2.22,11.3,11.29L77.72,44.79l.43.44a1.15,1.15,0,0,0,1.6,0L99.09,25.94l12.47-12.48c2.6-2.6,5.15-5.52,8.26-7.51a23.26,23.26,0,0,1,29,36.07l-2.22,2.21-11.29,11.3L113.1,77.74l-.44.43a1.13,1.13,0,0,0,1.57,1.57Z" transform="translate(0.02 0.06)"/></svg>