<svg id="Layer_1" data-name="Layer 1" xmlns="http://www.w3.org/2000/svg" viewBox="0 0 688.9 486.07"><defs><style>.cls-1,.cls-2{fill:#ea9937;}.cls-1{fill-rule:evenodd;}</style></defs><g id="Composite_Path" data-name="Composite Path"><path class="cls-1" d="M259.41,270.93c19.83,0,35.91-15.83,35.91-35.34s-16.1-35.34-35.91-35.34-35.92,15.82-35.92,35.34a34.87,34.87,0,0,0,.56,6.2,70.7,70.7,0,0,0,2,6.86A35.93,35.93,0,0,0,259.41,270.93ZM276,0V3.18a320.82,320.82,0,0,1,37.32,1.93c10.82,1.29,18.1,2.52,21.79,3.81s5.81,2.57,6.47,3.86c1.56,2.57,2.37,8.3,2.37,17.21v180.4q0,54.08-6,70.32Q328.58,307,293.79,307c-12.94,0-25.71-4.55-37.05-12.71S232.07,266.38,226,248.65a34.8,34.8,0,0,1-2-6.86c-.21-.89-.4-1.77-.56-2.64,6.13,33.1,20.37,50,31.75,58.43a62.18,62.18,0,0,0,38,12.61q49.6,0,79.33-29.08t29.67-75.32V184.45l-1.65-.07a20.11,20.11,0,0,0-19.8,15.86h6.36s5.48,7.36-12,7.85-12-7.85-12-7.85h3.66c2-16.51,16.32-29.32,33.73-29.32h1.65V149.63l-1.65-.06a20.13,20.13,0,0,0-19.69,15.35h6.25s5.48,7.36-12,7.85-12-7.85-12-7.85h3.72c2.22-16.27,16.44-28.82,33.67-28.82h1.65V114.82l-1.65-.07a20.13,20.13,0,0,0-19.57,14.81H387s5.48,7.36-12,7.85-12-7.85-12-7.85h3.79c2.45-16,16.56-28.28,33.6-28.28h1.65V80L400.4,80A20.14,20.14,0,0,0,381,94.26h6s5.48,7.36-12,7.86-12-7.86-12-7.86h3.86c2.67-15.76,16.68-27.77,33.53-27.77H402V45.18l-1.65-.07a20.15,20.15,0,0,0-19.25,13.78h5.81s5.48,7.37-12,7.86-12-7.86-12-7.86h4a33.76,33.76,0,0,1,33.41-27.24H402V29.84c0-10.49,1.12-16.82,3.44-19.09l4.45-1.88q15.78-5.71,56.83-5.74V0Z" transform="translate(0.03 -0.02)"/></g><g id="Path"><path class="cls-1" d="M34,381.25v69.23a41.79,41.79,0,0,1-1.38,11.46,21.09,21.09,0,0,1-4,7.86,16,16,0,0,1-6.47,4.58,23.62,23.62,0,0,1-8.65,1.45,20.6,20.6,0,0,1-5.95-.66,15.43,15.43,0,0,0-3.5-.65,3.58,3.58,0,0,0-2.38.72,2.48,2.48,0,0,0-.85,1.7c-.2,1.24-.4,2.49-.53,3.67S0,483.1,0,484.34A66.3,66.3,0,0,0,14.89,486a37.35,37.35,0,0,0,14.34-2.49,28.67,28.67,0,0,0,10.43-7.27,32,32,0,0,0,6.41-11.65,51.39,51.39,0,0,0,2.25-15.53V381.25Z" transform="translate(0.03 -0.02)"/></g><g id="Path-2"><path class="cls-1" d="M112.52,410.59v55a34.6,34.6,0,0,1-9.38,7.6,22.49,22.49,0,0,1-10.83,2.69c-5.29,0-9.25-1.51-11.89-4.59s-3.9-7.47-3.9-13.16V410.59H63.41V458A39.7,39.7,0,0,0,65,469.47a23.81,23.81,0,0,0,4.76,8.84,20.23,20.23,0,0,0,7.86,5.7,26.48,26.48,0,0,0,10.8,2,29.22,29.22,0,0,0,13.94-3.21,40.49,40.49,0,0,0,11-8.51l1,8.78a3.47,3.47,0,0,0,3.57,2.94h7.86V410.59Z" transform="translate(0.03 -0.02)"/></g><g id="Path-3"><path class="cls-1" d="M177.48,411a36.39,36.39,0,0,0-5.61-.46,21.24,21.24,0,0,0-13.34,4.32,33.25,33.25,0,0,0-9.45,12l-.92-12.44a5.71,5.71,0,0,0-1.12-3,4.18,4.18,0,0,0-2.91-.85H136.6V486h13.14V438.75a29.94,29.94,0,0,1,7.73-11.59,17,17,0,0,1,11.49-4,18.18,18.18,0,0,1,5.95.78,10,10,0,0,0,3.23.72,2.3,2.3,0,0,0,2.32-2l1.65-10.48A24.52,24.52,0,0,0,177.48,411Z" transform="translate(0.03 -0.02)"/></g><g id="Path-4"><path class="cls-1" d="M247.6,427.29a25.69,25.69,0,0,0-4.82-8.9,21.44,21.44,0,0,0-7.79-5.77,28,28,0,0,0-10.84-2,28.71,28.71,0,0,0-13.93,3.28,42.42,42.42,0,0,0-10.9,8.64l-1.06-8.91q-.78-3-3.56-3h-7.8V486h13.15V431.29a36,36,0,0,1,9.31-7.66,22.41,22.41,0,0,1,11-2.82c5.29,0,9.25,1.57,11.83,4.71s3.89,7.47,3.89,13.1V486h13.21V438.75A39,39,0,0,0,247.6,427.29Z" transform="translate(0.03 -0.02)"/></g><g id="Composite_Path-2" data-name="Composite Path-2"><path class="cls-1" d="M311.64,427.23a24.37,24.37,0,0,0-5.08-8.84,23.37,23.37,0,0,0-8.19-5.7,28.28,28.28,0,0,0-11.16-2.1,43.92,43.92,0,0,0-15.92,2.82A43.21,43.21,0,0,0,258,422l2.37,3.8a4.51,4.51,0,0,0,1.59,1.57,4.35,4.35,0,0,0,2.31.59,6,6,0,0,0,3.43-1.12c1.19-.72,2.58-1.5,4.17-2.42A32.62,32.62,0,0,1,277.5,422a26,26,0,0,1,8.12-1.11c4.89,0,8.52,1.37,11,4.12s3.79,6.72,3.79,12.06v5.3a95.06,95.06,0,0,0-21.54,2.1,50.56,50.56,0,0,0-14.26,5.3,21.31,21.31,0,0,0-7.86,7.4,17,17,0,0,0-2.45,8.71,21.86,21.86,0,0,0,1.65,9,16.49,16.49,0,0,0,4.5,6.29,17.26,17.26,0,0,0,6.6,3.73,25.56,25.56,0,0,0,8.19,1.24,36.38,36.38,0,0,0,7.79-.78,29.11,29.11,0,0,0,6.61-2.3,35.81,35.81,0,0,0,5.94-3.79c1.85-1.51,3.77-3.21,5.75-5.18l1.52,8.32a3.78,3.78,0,0,0,1.52,3,5.35,5.35,0,0,0,3.1.72h5.94V438.62A36.68,36.68,0,0,0,311.64,427.23Zm-11.23,39.43a48,48,0,0,1-4.56,3.86,30.87,30.87,0,0,1-4.89,2.82,25.76,25.76,0,0,1-5.48,1.83,27,27,0,0,1-6.34.66,19.05,19.05,0,0,1-4.82-.59,10.58,10.58,0,0,1-3.84-1.84,9.12,9.12,0,0,1-2.57-3.21,10.48,10.48,0,0,1-.93-4.71,8.29,8.29,0,0,1,1.79-5.11,14.39,14.39,0,0,1,5.74-4.06,48.22,48.22,0,0,1,10.37-2.75,102.13,102.13,0,0,1,15.53-1Z" transform="translate(0.03 -0.02)"/></g><g id="Path-5"><rect class="cls-2" x="327.04" y="377.04" width="13.14" height="108.99"/></g><g id="Path-6"><path class="cls-1" d="M431.41,433.91v7.6a2.37,2.37,0,0,0,.86,1.89,3.13,3.13,0,0,0,2.31.73H451v25.08a47.13,47.13,0,0,1-11.55,4.9,41.8,41.8,0,0,1-6.74,1.31,73.62,73.62,0,0,1-7.86.4,40.67,40.67,0,0,1-15.72-2.89,33.77,33.77,0,0,1-12.28-8.31,37.53,37.53,0,0,1-8-13.37,52.47,52.47,0,0,1-2.84-18,51.12,51.12,0,0,1,2.7-17.35,36.55,36.55,0,0,1,7.8-13.17,34.8,34.8,0,0,1,12.41-8.32,42.69,42.69,0,0,1,16.19-2.94,55.78,55.78,0,0,1,10.63.91,46.1,46.1,0,0,1,7.73,2.3,47,47,0,0,1,5.61,2.75c1.52,1,2.91,1.76,4.16,2.42a5.38,5.38,0,0,0,2.58.79,3.68,3.68,0,0,0,3.24-1.9l4.09-6.29a55.05,55.05,0,0,0-7.4-4.65,54.26,54.26,0,0,0-8.52-3.54,72.91,72.91,0,0,0-10-2.23,80.63,80.63,0,0,0-11.62-.78,63.93,63.93,0,0,0-22.46,3.8A48.56,48.56,0,0,0,386,395.79a45.82,45.82,0,0,0-10.9,16.5,58.25,58.25,0,0,0-3.77,21.42,56.6,56.6,0,0,0,3.83,21.22,47.83,47.83,0,0,0,27.41,27.31,56.72,56.72,0,0,0,21.21,3.8,115.79,115.79,0,0,0,12.21-.59,71.91,71.91,0,0,0,10.51-1.9,55.93,55.93,0,0,0,9.24-3.07,57.06,57.06,0,0,0,8.33-4.39V433.91Z" transform="translate(0.03 -0.02)"/></g><g id="Composite_Path-3" data-name="Composite Path-3"><path class="cls-1" d="M539.94,432.79a34.35,34.35,0,0,0-7.07-11.92,32.45,32.45,0,0,0-11.3-7.59,42.16,42.16,0,0,0-29.65,0,32.45,32.45,0,0,0-11.3,7.59,33.26,33.26,0,0,0-7.13,11.92,49.62,49.62,0,0,0,0,31.18,33,33,0,0,0,7.13,11.86,31.31,31.31,0,0,0,11.3,7.59,43.29,43.29,0,0,0,29.65,0,31.31,31.31,0,0,0,11.3-7.59A34,34,0,0,0,539.94,464a49.62,49.62,0,0,0,0-31.18Zm-16.65,35.83c-3.63,4.85-9.11,7.21-16.51,7.21A23.61,23.61,0,0,1,497,474a18,18,0,0,1-6.93-5.37,24,24,0,0,1-4.16-8.6,51.59,51.59,0,0,1,0-23.19,24.27,24.27,0,0,1,4.16-8.71,18,18,0,0,1,6.93-5.37,23.63,23.63,0,0,1,9.78-1.9c7.4,0,12.88,2.42,16.51,7.27s5.48,11.66,5.48,20.3S526.92,463.77,523.29,468.62Z" transform="translate(0.03 -0.02)"/></g><g id="Path-7"><rect class="cls-2" x="549.39" y="377.04" width="13.14" height="108.99"/></g><g id="Composite_Path-4" data-name="Composite Path-4"><path class="cls-1" d="M624.41,377v42.37a29.7,29.7,0,0,0-8.72-6.48,27.18,27.18,0,0,0-11.76-2.36,30.23,30.23,0,0,0-13.61,2.95,29.74,29.74,0,0,0-10.17,8.05,36.13,36.13,0,0,0-6.4,12.12,49.84,49.84,0,0,0-2.18,15,59.15,59.15,0,0,0,2,16.11,32.46,32.46,0,0,0,5.68,11.73,23.21,23.21,0,0,0,8.91,7.07A27.25,27.25,0,0,0,599.92,486a29.35,29.35,0,0,0,14.14-3.34,38.52,38.52,0,0,0,11-9l1.19,9.5a3.41,3.41,0,0,0,3.57,2.81h7.85V377Zm0,87.76a31.29,31.29,0,0,1-8.92,8.12,21.17,21.17,0,0,1-11.23,2.89,20,20,0,0,1-8.19-1.51,13.5,13.5,0,0,1-5.94-4.78,22.36,22.36,0,0,1-3.7-8.39,50.36,50.36,0,0,1-1.26-12.24c0-9,1.85-15.92,5.62-20.77s9.11-7.33,16.11-7.33a24.06,24.06,0,0,1,9.58,1.9,20.77,20.77,0,0,1,7.93,6.68Z" transform="translate(0.03 -0.02)"/></g><g id="Path-8"><polygon class="cls-1" points="650.81 377.24 650.81 379.49 657.28 379.49 657.28 398.2 659.97 398.2 659.97 379.49 666.4 379.49 666.4 377.24 650.81 377.24"/></g><g id="Path-9"><path class="cls-1" d="M686.82,377.26a1.77,1.77,0,0,0-.56.09.72.72,0,0,0-.35.38l-6.77,12.91c-.13.28-.26.51-.35.75l-.26.79a3.46,3.46,0,0,1-.3-.75,7.91,7.91,0,0,0-.35-.79L671,377.73a1,1,0,0,0-.39-.38,1.84,1.84,0,0,0-.57-.09h-1.95v21h2.3V381.05l7,13.47a1,1,0,0,0,1,.66h.39a1.05,1.05,0,0,0,1-.66l6.82-13.43a4.8,4.8,0,0,0-.09.75v16.38h2.39v-21Z" transform="translate(0.03 -0.02)"/></g></svg>