<svg id="Layer_1" data-name="Layer 1" xmlns="http://www.w3.org/2000/svg" viewBox="0 0 43.56 55.54"><defs><style>.cls-1{fill:#da5859;fill-rule:evenodd;}</style></defs><g id="Composite_Path" data-name="Composite Path"><path class="cls-1" d="M17.1,52.81a6.33,6.33,0,1,0-6.43-6.32,6,6,0,0,0,.1,1.11c.1.41.22.82.36,1.22A6.42,6.42,0,0,0,17.1,52.81Zm3-48.51v.57a57.38,57.38,0,0,1,6.68.35,22.45,22.45,0,0,1,3.9.68c.67.23,1.05.46,1.16.69a7,7,0,0,1,.43,3.08V42q0,9.69-1.08,12.59-1.68,4.71-7.9,4.71A11.4,11.4,0,0,1,16.62,57c-2-1.47-4.41-5-5.5-8.18a6.34,6.34,0,0,1-.36-1.22c0-.16-.07-.32-.1-.48,1.1,5.93,3.65,9,5.68,10.46a11.09,11.09,0,0,0,6.81,2.26q8.88,0,14.2-5.2a18,18,0,0,0,5.32-13.49V37.33h-.3a3.61,3.61,0,0,0-3.55,2.84H40s1,1.31-2.14,1.4-2.15-1.4-2.15-1.4h.65a6,6,0,0,1,6-5.25h.3V31.09h-.3a3.6,3.6,0,0,0-3.52,2.75H40s1,1.32-2.14,1.41-2.15-1.41-2.15-1.41h.66a6.05,6.05,0,0,1,6-5.16h.3V24.86h-.3a3.6,3.6,0,0,0-3.5,2.65H40s1,1.32-2.15,1.41-2.15-1.41-2.15-1.41h.68a6,6,0,0,1,6-5.06h.3V18.63h-.29a3.61,3.61,0,0,0-3.48,2.55H40s1,1.32-2.15,1.41-2.15-1.41-2.15-1.41h.69a6.05,6.05,0,0,1,6-5h.29V12.39h-.29a3.59,3.59,0,0,0-3.45,2.47h1s1,1.32-2.15,1.4-2.15-1.4-2.15-1.4h.72a6,6,0,0,1,6-4.88h.3V9.65c0-1.88.2-3,.62-3.42L44,5.89q2.84-1,10.18-1V4.3Z" transform="translate(-10.66 -4.3)"/></g></svg>