<svg id="Layer_2" data-name="Layer 2" xmlns="http://www.w3.org/2000/svg" viewBox="0 0 895.84 240.46"><defs><style>.cls-1{fill:#e99a35;}.cls-2{fill:#0a7fc3;}</style></defs><g id="Composite_Path" data-name="Composite Path"><path class="cls-1" d="M188.17,326h-4.56c8.29,4.64,23,14.87,23,26.1,0,33.54-74.7,51.26-78.37,51.26C107,406.1,85,413.54,65.54,417.28c-5.51.9-12,1.85-15.63,4.64-9.23,4.69-17.52,9.34-17.52,17.72,0,1.84-1.89,5.59,3.67,5.59,2.78,0,61.79-18.62,92.21-28,11.07-3.74,84.82-21.46,84.82-63.38C213.09,342.72,201.13,329.64,188.17,326Zm64.57-121.18h-3.67c15.63,8.39,26.69,21.46,26.69,35.44,0,13-10.12,23.25-24,28-22.13,7.43-45.15,10.22-66.34,16.76-11.07,3.75-91.32,17.72-91.32,57.8,0,16.77,17.52,27.94,33.2,27.94a21.09,21.09,0,0,0,10.17-2.79c1.84-.95,2.73-3.74,4.57-5.59-1.84-1.84-3.67-3.74-5.51-3.74-3.67-.9-25.81-7.44-25.81-16.77,0-22.36,95.89-49.41,96.83-49.41,12.9-4.64,75.58-13,75.58-49.36C283.16,227.13,273.93,213.16,252.74,204.77Z" transform="translate(-32.08 -204.77)"/></g><path class="cls-2" d="M630.59,393.62q-10.2,0-17.46-4.32A28.33,28.33,0,0,1,602,377q-3.87-7.95-3.87-18.94A42.56,42.56,0,0,1,602,339.27,28.3,28.3,0,0,1,613.13,327q7.25-4.31,17.46-4.31a37.79,37.79,0,0,1,11.57,1.76,29.27,29.27,0,0,1,9.52,5,4.16,4.16,0,0,1,1.91,2.74,3.84,3.84,0,0,1-.54,2.8,3.5,3.5,0,0,1-2.2,1.57,3.92,3.92,0,0,1-3.19-.93,26.12,26.12,0,0,0-16.88-5.6q-11.67,0-17.85,7.36t-6.18,20.7q0,13.44,6.18,20.8t17.85,7.36a26.61,26.61,0,0,0,17.07-5.69,4.21,4.21,0,0,1,3.19-.88,3.16,3.16,0,0,1,2.16,1.47,3.87,3.87,0,0,1,.54,2.65,4.08,4.08,0,0,1-1.67,2.64,29.16,29.16,0,0,1-9.71,5.35A37.3,37.3,0,0,1,630.59,393.62Z" transform="translate(-32.08 -204.77)"/><path class="cls-2" d="M663.63,392.22q-4,0-4-4.12V347.19q0-4,3.82-4t3.93,4v5.2a14.45,14.45,0,0,1,6.08-6.91,20.51,20.51,0,0,1,9.81-2.6c2.09-.2,3.21.85,3.34,3.14s-1,3.56-3.53,3.82l-1.57.2q-6.78.58-10.31,4.27t-3.53,10.05V388.1Q667.65,392.23,663.63,392.22Z" transform="translate(-32.08 -204.77)"/><path class="cls-2" d="M711.46,392.42q-11.3,0-17.86-6.62t-6.57-18a27.7,27.7,0,0,1,2.94-13,21.58,21.58,0,0,1,8.09-8.74A22.74,22.74,0,0,1,710,343q9.72,0,15.21,6.23t5.49,17.12q0,3-3.43,3H694.78q.39,8.14,4.71,12.41t12,4.27a27.38,27.38,0,0,0,6.57-.83,20,20,0,0,0,6.47-3c1.51-1,2.77-1.18,3.78-.59a3,3,0,0,1,1.57,2.7,3.73,3.73,0,0,1-2,3.18,24.39,24.39,0,0,1-7.7,3.63A31.58,31.58,0,0,1,711.46,392.42Zm-1.28-43.56q-6.76,0-10.69,4.22a18.38,18.38,0,0,0-4.61,11.08h28.94q-.3-7.25-3.78-11.28T710.18,348.86Z" transform="translate(-32.08 -204.77)"/><path class="cls-2" d="M752.57,392.42a19.66,19.66,0,0,1-8.78-1.91,15.66,15.66,0,0,1-6.13-5.25,13.06,13.06,0,0,1-2.25-7.46,12,12,0,0,1,2.69-8.24q2.7-3,8.93-4.37a86.06,86.06,0,0,1,17-1.32h3.14v-3c0-4.06-.83-7-2.5-8.78s-4.33-2.7-8-2.7a28.4,28.4,0,0,0-6.91.88,32.87,32.87,0,0,0-7.21,2.85,3.08,3.08,0,0,1-2.8.34,3,3,0,0,1-1.57-1.76,3.84,3.84,0,0,1,0-2.55,3.41,3.41,0,0,1,1.91-2A36.73,36.73,0,0,1,748.6,344a35.86,35.86,0,0,1,8.09-1q9.22,0,13.69,4.52t4.46,14V388.1q0,4.13-3.63,4.12-3.83,0-3.82-4.12v-4.8a14.9,14.9,0,0,1-5.74,6.67A16.67,16.67,0,0,1,752.57,392.42Zm1.28-6a12.41,12.41,0,0,0,9.61-4.07A14.7,14.7,0,0,0,767.19,372v-2.94h-3a82.71,82.71,0,0,0-12.51.74q-4.56.74-6.38,2.55a6.69,6.69,0,0,0-1.81,4.95,8.47,8.47,0,0,0,2.8,6.57A10.83,10.83,0,0,0,753.85,386.43Z" transform="translate(-32.08 -204.77)"/><path class="cls-2" d="M805.1,392.42q-8.43,0-12.65-4.47t-4.22-12.9V350h-6.57q-3.43,0-3.44-3.14t3.44-3h6.57V332.58q0-4,4-4t3.93,4v11.28h12.36q3.44,0,3.43,3T808.54,350H796.18v24.23q0,5.6,2.35,8.49t7.65,2.89a10.88,10.88,0,0,0,3.14-.39,7.87,7.87,0,0,1,2.26-.4,1.63,1.63,0,0,1,1.47.59,3.69,3.69,0,0,1,.59,2.36,5.31,5.31,0,0,1-.44,2.16,2.58,2.58,0,0,1-1.52,1.37,23.82,23.82,0,0,1-3.09.73A19.9,19.9,0,0,1,805.1,392.42Z" transform="translate(-32.08 -204.77)"/><path class="cls-2" d="M823.94,332.38c-3.47,0-5.2-1.63-5.2-4.91s1.73-4.8,5.2-4.8,5.2,1.6,5.2,4.8S827.4,332.38,823.94,332.38Zm0,59.65q-3.93,0-3.93-4.32V347.59c0-2.82,1.31-4.22,3.93-4.22s4,1.4,4,4.22v40.12Q828,392,823.94,392Z" transform="translate(-32.08 -204.77)"/><path class="cls-2" d="M857,392.42a23.19,23.19,0,0,1-12.07-3,20.54,20.54,0,0,1-7.9-8.59,32.13,32.13,0,0,1,0-26.19,20.51,20.51,0,0,1,7.9-8.58A25.29,25.29,0,0,1,869,346a20.31,20.31,0,0,1,8,8.58,32,32,0,0,1,0,26.19,20.33,20.33,0,0,1-8,8.59A23.25,23.25,0,0,1,857,392.42Zm0-6.38a13.28,13.28,0,0,0,10.69-4.76q4-4.75,4-13.58t-4-13.64a14.55,14.55,0,0,0-21.44,0q-4,4.71-4,13.64t4,13.58A13.25,13.25,0,0,0,857,386Z" transform="translate(-32.08 -204.77)"/><path class="cls-2" d="M890.74,392.22q-3.93,0-3.93-4.12V347.19q0-4,3.83-4t3.92,4V352a15.53,15.53,0,0,1,6.67-6.77A20.73,20.73,0,0,1,911,343q17,0,17,18.84V388.1q0,4.13-3.93,4.12t-4-4.12V362.3q0-6.68-2.6-9.76c-1.73-2.06-4.5-3.09-8.29-3.09q-6.57,0-10.45,4.07t-3.87,10.84V388.1Q894.76,392.23,890.74,392.22Z" transform="translate(-32.08 -204.77)"/><path class="cls-2" d="M589,379.22H571.6l27.64-40.08h-53.5v11.18H571.6L543,389.45V339.14H526.38v52.21l77.35.41A22.82,22.82,0,0,1,589,379.22Z" transform="translate(-32.08 -204.77)"/><path class="cls-2" d="M496,366.14c-5.51-9.28-9.23-18.61-12.9-27H472.94c-3.73,9.33-7.4,18.62-12,27-4.61-9.28-8.28-18.61-12-27H412V323.27h-3.61c-1.08,3.06-5.19,13.74-15.69,15.87l-12.58.14c-.24-16.82,6.08-17.49,14.47-16.91V313c-12.71-1.94-31.38,1.59-31.62,16.63,0,1.84.32,5.38.26,9.47h-7.4v8.39c-14.69-21.5-52.43-17.78-58.06,14.92-1.84-3.74-2.58-8.2-8.15-12.17-5.18-2.84-7.54-3.7-11.21-4.6-44.85-13.34-15.14-28.2,15.69-12.13V318.63c-22.16-8.05-53.92-12.33-58.91,14.13.06,2.79.79,9.17,2.63,12,8.28,12.13,27.09,11.5,36,19.57,12.52,11.36-17.28,15.8-25.81,9.33-2.78,1.84-12.69,9.7-12.69,9.7,19.66,12.55,54.77,16.88,63.36-13.45,15,39.88,72,19.89,59-20.51h5.93l-.37,42h17.51v-42h15.69c-.16,31.38-.34,54.22,35.93,40.08V378.27c-8.21,2.05-20.36,3.58-20.94-5.56.18-10,.27-18.48.36-23.34h23.36c7.39,14,13.84,27.95,20.3,42h8.28c4.62-9.34,9.24-18.67,14.74-28,4.62,9.34,9.24,18.67,12,28h9.23c9.18-17.72,17.52-35.44,24.86-52.21H508C504.25,348.47,499.68,357.76,496,366.14ZM328.17,378.27c-15.93-1.36-15.17-28.75,0-28.9,11.07,0,13.48,8.86,13.48,14.45C341.65,372.2,336.46,378.27,328.17,378.27Z" transform="translate(-32.08 -204.77)"/><circle class="cls-2" cx="503.47" cy="116.88" r="9.17"/></svg>