<svg id="Cover" xmlns="http://www.w3.org/2000/svg" xmlns:xlink="http://www.w3.org/1999/xlink" viewBox="0 0 1281.68 906.5"><defs><style>.cls-1{opacity:0.3;}.cls-10,.cls-11,.cls-13,.cls-15,.cls-17,.cls-18,.cls-2,.cls-22,.cls-23,.cls-24,.cls-26,.cls-27,.cls-28,.cls-29,.cls-3,.cls-34,.cls-4,.cls-42,.cls-43,.cls-5,.cls-6,.cls-7,.cls-8,.cls-9{fill:none;}.cls-13,.cls-15,.cls-17,.cls-18,.cls-2,.cls-23,.cls-28,.cls-29,.cls-30,.cls-32,.cls-34,.cls-35,.cls-38,.cls-39,.cls-40,.cls-5,.cls-6,.cls-7,.cls-8,.cls-9{stroke:#a5a5a5;}.cls-10,.cls-11,.cls-12,.cls-13,.cls-14,.cls-15,.cls-16,.cls-17,.cls-18,.cls-19,.cls-2,.cls-20,.cls-21,.cls-22,.cls-23,.cls-24,.cls-25,.cls-26,.cls-27,.cls-28,.cls-29,.cls-3,.cls-30,.cls-32,.cls-33,.cls-34,.cls-35,.cls-38,.cls-39,.cls-4,.cls-40,.cls-41,.cls-42,.cls-43,.cls-5,.cls-6,.cls-7,.cls-8,.cls-9{stroke-miterlimit:10;}.cls-3{stroke:url(#linear-gradient);}.cls-4{stroke:url(#linear-gradient-2);}.cls-5{opacity:0.56;}.cls-6{opacity:0.72;}.cls-7{opacity:0.39;}.cls-8{opacity:0.64;}.cls-9{opacity:0.63;}.cls-10{stroke:url(#linear-gradient-3);}.cls-11{stroke:url(#linear-gradient-4);}.cls-12,.cls-14,.cls-16,.cls-19,.cls-20,.cls-21,.cls-25,.cls-41{fill:#a5a5a5;}.cls-12{stroke:url(#linear-gradient-5);}.cls-13{opacity:0.42;}.cls-14{stroke:url(#linear-gradient-6);}.cls-15{opacity:0.59;}.cls-16{stroke:url(#linear-gradient-7);}.cls-17{opacity:0.73;}.cls-18{opacity:0.28;}.cls-19{stroke:url(#linear-gradient-8);}.cls-20{stroke:url(#linear-gradient-9);}.cls-21{stroke:url(#linear-gradient-10);}.cls-22{stroke:url(#linear-gradient-11);}.cls-23{opacity:0.55;}.cls-24{opacity:0.47;stroke:url(#linear-gradient-12);}.cls-25{stroke:url(#linear-gradient-13);}.cls-26{stroke:url(#linear-gradient-14);}.cls-27{stroke:url(#linear-gradient-15);}.cls-28{opacity:0.45;}.cls-29{opacity:0.5;}.cls-30,.cls-31,.cls-32,.cls-33,.cls-35,.cls-36,.cls-37,.cls-38,.cls-39,.cls-40{fill:#f2f2f2;}.cls-30{opacity:0.36;}.cls-31{opacity:0.81;}.cls-32{opacity:0.25;}.cls-33{opacity:0.38;stroke:url(#linear-gradient-16);}.cls-34{opacity:0.18;}.cls-35{opacity:0.32;}.cls-36{opacity:0.69;}.cls-37{opacity:0.26;}.cls-38{opacity:0.3;}.cls-39{opacity:0.23;}.cls-40{opacity:0.51;}.cls-41{stroke:url(#linear-gradient-17);}.cls-42{stroke:url(#linear-gradient-18);}.cls-43{stroke:url(#linear-gradient-19);}</style><linearGradient id="linear-gradient" x1="0.79" y1="471.69" x2="145.31" y2="471.69" gradientUnits="userSpaceOnUse"><stop offset="0.05" stop-color="#fff" stop-opacity="0"/><stop offset="0.58" stop-color="#a8a8a8"/></linearGradient><linearGradient id="linear-gradient-2" x1="264.49" y1="79.95" x2="424.98" y2="79.95" gradientUnits="userSpaceOnUse"><stop offset="0.05" stop-color="#a8a8a8"/><stop offset="1" stop-color="#fff" stop-opacity="0"/></linearGradient><linearGradient id="linear-gradient-3" x1="0.79" y1="210.35" x2="265.11" y2="210.35" gradientUnits="userSpaceOnUse"><stop offset="0" stop-color="#fff" stop-opacity="0"/><stop offset="0.78" stop-color="#a8a8a8"/></linearGradient><linearGradient id="linear-gradient-4" x1="0.8" y1="291.24" x2="85.11" y2="291.24" gradientUnits="userSpaceOnUse"><stop offset="0.22" stop-color="#fff" stop-opacity="0"/><stop offset="1" stop-color="#a8a8a8"/></linearGradient><linearGradient id="linear-gradient-5" x1="88.53" y1="433.76" x2="678.57" y2="433.76" gradientTransform="matrix(0.99, 0, 0, 1, 4.8, 5.97)" gradientUnits="userSpaceOnUse"><stop offset="0" stop-color="#a5a5a5"/><stop offset="1" stop-color="#fff" stop-opacity="0"/></linearGradient><linearGradient id="linear-gradient-6" x1="433.74" y1="636.54" x2="680.13" y2="636.54" gradientTransform="matrix(1, 0, 0, 1, 0, 0)" xlink:href="#linear-gradient-5"/><linearGradient id="linear-gradient-7" x1="679.4" y1="568.61" x2="1281.22" y2="568.61" gradientUnits="userSpaceOnUse"><stop offset="0" stop-color="#fff" stop-opacity="0"/><stop offset="1" stop-color="#a9a9a9"/></linearGradient><linearGradient id="linear-gradient-8" x1="143.78" y1="747.64" x2="579.99" y2="747.64" gradientUnits="userSpaceOnUse"><stop offset="0" stop-color="#a5a5a5"/><stop offset="0.06" stop-color="#acacac" stop-opacity="0.92"/><stop offset="0.39" stop-color="#cfcfcf" stop-opacity="0.53"/><stop offset="0.67" stop-color="#e9e9e9" stop-opacity="0.24"/><stop offset="0.88" stop-color="#f9f9f9" stop-opacity="0.07"/><stop offset="1" stop-color="#fff" stop-opacity="0"/></linearGradient><linearGradient id="linear-gradient-9" x1="565.33" y1="760.35" x2="716.17" y2="760.35" xlink:href="#linear-gradient-8"/><linearGradient id="linear-gradient-10" x1="565.67" y1="579.88" x2="938.59" y2="579.88" xlink:href="#linear-gradient-8"/><linearGradient id="linear-gradient-11" x1="938.01" y1="721.36" x2="1055.2" y2="721.36" gradientUnits="userSpaceOnUse"><stop offset="0" stop-color="#fff" stop-opacity="0"/><stop offset="0.95" stop-color="#a8a8a8"/></linearGradient><linearGradient id="linear-gradient-12" x1="0" y1="197.85" x2="678.92" y2="197.85" xlink:href="#linear-gradient-2"/><linearGradient id="linear-gradient-13" x1="-0.36" y1="549.09" x2="93.6" y2="549.09" gradientTransform="matrix(1.16, -1.12, 0.16, 1.62, -95.15, -199.21)" xlink:href="#linear-gradient-8"/><linearGradient id="linear-gradient-14" x1="1203.57" y1="299.08" x2="1227.35" y2="299.08" gradientUnits="userSpaceOnUse"><stop offset="0.54" stop-color="#a8a8a8"/><stop offset="1" stop-color="#fff" stop-opacity="0"/></linearGradient><linearGradient id="linear-gradient-15" x1="1226.4" y1="413.57" x2="1281.68" y2="413.57" xlink:href="#linear-gradient-14"/><linearGradient id="linear-gradient-16" x1="669.68" y1="371.25" x2="689.67" y2="371.25" gradientUnits="userSpaceOnUse"><stop offset="0" stop-color="#a5a5a5"/><stop offset="0.43" stop-color="#b9b9b9" stop-opacity="0.85"/><stop offset="1" stop-color="#ccc" stop-opacity="0.7"/></linearGradient><linearGradient id="linear-gradient-17" x1="13.48" y1="129.21" x2="85.17" y2="129.21" gradientUnits="userSpaceOnUse"><stop offset="0.4" stop-color="#fff" stop-opacity="0"/><stop offset="1" stop-color="#a5a5a5"/></linearGradient><linearGradient id="linear-gradient-18" x1="679.22" y1="206.23" x2="832.83" y2="206.23" xlink:href="#linear-gradient-11"/><linearGradient id="linear-gradient-19" x1="1203.66" y1="72.46" x2="1281.62" y2="72.46" xlink:href="#linear-gradient-2"/></defs><g class="cls-1"><line class="cls-2" x1="1.22" y1="901.83" x2="292.59" y2="825.3"/><line class="cls-3" x1="144.88" y1="589.83" x2="1.22" y2="353.55"/><line class="cls-4" x1="424.63" y1="0.35" x2="264.84" y2="159.55"/><line class="cls-5" x1="1069.2" y1="3.8" x2="1031.7" y2="258.58"/><line class="cls-6" x1="1031.7" y1="258.58" x2="1203.95" y2="124.66"/><line class="cls-7" x1="657.59" y1="2.01" x2="1204.07" y2="124.57"/><line class="cls-8" x1="299.43" y1="1.05" x2="192.01" y2="484.25"/><line class="cls-9" x1="264.84" y1="159.55" x2="177.84" y2="5.83"/><line class="cls-10" x1="264.93" y1="159.51" x2="0.97" y2="261.18"/><line class="cls-11" x1="84.7" y1="228.93" x2="1.22" y2="353.55"/><line class="cls-12" x1="94.47" y1="507.88" x2="679.68" y2="371.25"/><line class="cls-13" x1="192.01" y1="484.25" x2="1.22" y2="901.83"/><line class="cls-14" x1="679.68" y1="371.25" x2="434.2" y2="901.83"/><line class="cls-15" x1="144.88" y1="589.83" x2="343.41" y2="906.24"/><line class="cls-2" x1="292.59" y1="825.3" x2="565.78" y2="618.87"/><line class="cls-16" x1="679.68" y1="371.25" x2="1280.95" y2="765.97"/><line class="cls-17" x1="579.7" y1="905.91" x2="1226.85" y2="473.58"/><line class="cls-18" x1="1226.85" y1="473.58" x2="832.38" y2="41.21"/><line class="cls-19" x1="144.07" y1="589.37" x2="579.7" y2="905.91"/><line class="cls-20" x1="565.78" y1="618.87" x2="715.73" y2="901.83"/><line class="cls-21" x1="565.78" y1="618.87" x2="938.48" y2="540.88"/><line class="cls-22" x1="938.48" y1="540.88" x2="1054.72" y2="901.83"/><line class="cls-2" x1="1028.06" y1="823.55" x2="1281.22" y2="901.83"/><line class="cls-2" x1="1028.06" y1="823.55" x2="1226.85" y2="473.58"/><line class="cls-23" x1="1204.07" y1="124.57" x2="1069.2" y2="3.8"/><line class="cls-24" x1="678.69" y1="373.3" x2="0.23" y2="22.39"/><line class="cls-13" x1="192.01" y1="484.25" x2="565.78" y2="618.87"/><line class="cls-25" x1="94.47" y1="507.88" x2="1.22" y2="764.57"/><line class="cls-26" x1="1204.07" y1="124.57" x2="1226.85" y2="473.58"/><line class="cls-27" x1="1226.85" y1="473.58" x2="1281.22" y2="353.55"/><line class="cls-28" x1="1031.7" y1="258.58" x2="938.48" y2="540.88"/><line class="cls-29" x1="832.38" y1="41.21" x2="264.84" y2="159.55"/><circle class="cls-30" cx="264.46" cy="158.34" r="13.43"/><circle class="cls-31" cx="832.38" cy="41.21" r="5.26"/><circle class="cls-32" cx="144.71" cy="589.83" r="9.5"/><circle class="cls-33" cx="679.68" cy="371.25" r="9.5"/><circle class="cls-34" cx="192.01" cy="484.25" r="6.49"/><circle class="cls-35" cx="95.05" cy="507.88" r="4.4"/><circle class="cls-36" cx="84.7" cy="228.93" r="6.49"/><circle class="cls-37" cx="1032.1" cy="257.4" r="9.5"/><circle class="cls-36" cx="1203.95" cy="124.66" r="6.73"/><circle class="cls-38" cx="938.48" cy="540.88" r="21.73"/><circle class="cls-32" cx="565.42" cy="618.2" r="15.36"/><circle class="cls-32" cx="1028.06" cy="823.55" r="10.86"/><circle class="cls-39" cx="1226.85" cy="473.58" r="10.86"/><circle class="cls-40" cx="292.59" cy="825.3" r="10.86"/><line class="cls-2" x1="1028.06" y1="823.55" x2="715.73" y2="901.83"/><line class="cls-2" x1="938.48" y1="540.88" x2="1226.85" y2="473.58"/><line class="cls-41" x1="84.7" y1="228.93" x2="13.95" y2="29.49"/><line class="cls-42" x1="679.68" y1="371.25" x2="832.38" y2="41.21"/><line class="cls-43" x1="1204.07" y1="124.57" x2="1281.22" y2="20.35"/></g></svg>